<mxfile host="Electron" modified="2024-03-21T07:38:08.855Z" agent="Mozilla/5.0 (Windows NT 10.0; Win64; x64) AppleWebKit/537.36 (KHTML, like Gecko) draw.io/24.0.4 Chrome/120.0.6099.109 Electron/28.1.0 Safari/537.36" etag="Z-6EVC_fQGs6Hv-70JUC" version="24.0.4" type="device">
  <diagram name="Page-1" id="PDQULa9gP3zTsk28y9uI">
    <mxGraphModel dx="3000" dy="1774" grid="1" gridSize="10" guides="1" tooltips="1" connect="1" arrows="1" fold="1" page="1" pageScale="1" pageWidth="827" pageHeight="1169" math="0" shadow="0">
      <root>
        <mxCell id="0" />
        <mxCell id="1" parent="0" />
        <mxCell id="w1f9zPb9V4aRd-DBQQLe-1" value="Quản lý" style="swimlane;html=1;startSize=20;fontStyle=0;collapsible=0;horizontal=0;swimlaneLine=1;swimlaneFillColor=#ffffff;strokeWidth=2;whiteSpace=wrap;fillColor=#f8cecc;strokeColor=#b85450;fontFamily=Times New Roman;fontSize=15;" parent="1" vertex="1">
          <mxGeometry x="170" y="50" width="1030" height="420" as="geometry" />
        </mxCell>
        <mxCell id="w1f9zPb9V4aRd-DBQQLe-3" value="Phân công công việc" style="points=[[0.25,0,0],[0.5,0,0],[0.75,0,0],[1,0.25,0],[1,0.5,0],[1,0.75,0],[0.75,1,0],[0.5,1,0],[0.25,1,0],[0,0.75,0],[0,0.5,0],[0,0.25,0]];shape=mxgraph.bpmn.task;whiteSpace=wrap;rectStyle=rounded;size=10;html=1;container=1;expand=0;collapsible=0;taskMarker=manual;fillColor=#f8cecc;strokeColor=#b85450;fontFamily=Times New Roman;fontSize=15;" parent="w1f9zPb9V4aRd-DBQQLe-1" vertex="1">
          <mxGeometry x="40" y="130" width="170" height="100" as="geometry" />
        </mxCell>
        <mxCell id="w1f9zPb9V4aRd-DBQQLe-4" value="Giám sát" style="points=[[0.25,0,0],[0.5,0,0],[0.75,0,0],[1,0.25,0],[1,0.5,0],[1,0.75,0],[0.75,1,0],[0.5,1,0],[0.25,1,0],[0,0.75,0],[0,0.5,0],[0,0.25,0]];shape=mxgraph.bpmn.task;whiteSpace=wrap;rectStyle=rounded;size=10;html=1;container=1;expand=0;collapsible=0;taskMarker=manual;fillColor=#f8cecc;strokeColor=#b85450;fontFamily=Times New Roman;fontSize=15;" parent="w1f9zPb9V4aRd-DBQQLe-1" vertex="1">
          <mxGeometry x="290" y="280" width="190" height="100" as="geometry" />
        </mxCell>
        <mxCell id="w1f9zPb9V4aRd-DBQQLe-8" value="Ghi công vào sổ" style="points=[[0.25,0,0],[0.5,0,0],[0.75,0,0],[1,0.25,0],[1,0.5,0],[1,0.75,0],[0.75,1,0],[0.5,1,0],[0.25,1,0],[0,0.75,0],[0,0.5,0],[0,0.25,0]];shape=mxgraph.bpmn.task;whiteSpace=wrap;rectStyle=rounded;size=10;html=1;container=1;expand=0;collapsible=0;taskMarker=manual;fillColor=#f8cecc;strokeColor=#b85450;fontFamily=Times New Roman;fontSize=15;" parent="w1f9zPb9V4aRd-DBQQLe-1" vertex="1">
          <mxGeometry x="730" y="50" width="190" height="100" as="geometry" />
        </mxCell>
        <mxCell id="w1f9zPb9V4aRd-DBQQLe-9" value="Tính lương và trả lương" style="points=[[0.25,0,0],[0.5,0,0],[0.75,0,0],[1,0.25,0],[1,0.5,0],[1,0.75,0],[0.75,1,0],[0.5,1,0],[0.25,1,0],[0,0.75,0],[0,0.5,0],[0,0.25,0]];shape=mxgraph.bpmn.task;whiteSpace=wrap;rectStyle=rounded;size=10;html=1;container=1;expand=0;collapsible=0;taskMarker=manual;fillColor=#f8cecc;strokeColor=#b85450;fontFamily=Times New Roman;fontSize=15;" parent="w1f9zPb9V4aRd-DBQQLe-1" vertex="1">
          <mxGeometry x="740" y="270" width="180" height="100" as="geometry" />
        </mxCell>
        <mxCell id="w1f9zPb9V4aRd-DBQQLe-11" value="" style="points=[[0.145,0.145,0],[0.5,0,0],[0.855,0.145,0],[1,0.5,0],[0.855,0.855,0],[0.5,1,0],[0.145,0.855,0],[0,0.5,0]];shape=mxgraph.bpmn.event;html=1;verticalLabelPosition=bottom;labelBackgroundColor=#ffffff;verticalAlign=top;align=center;perimeter=ellipsePerimeter;outlineConnect=0;aspect=fixed;outline=standard;symbol=general;fillColor=#f8cecc;strokeColor=#b85450;fontFamily=Times New Roman;fontSize=15;" parent="w1f9zPb9V4aRd-DBQQLe-1" vertex="1">
          <mxGeometry x="90" y="20" width="50" height="50" as="geometry" />
        </mxCell>
        <mxCell id="w1f9zPb9V4aRd-DBQQLe-12" style="edgeStyle=orthogonalEdgeStyle;rounded=0;orthogonalLoop=1;jettySize=auto;html=1;exitX=0.5;exitY=1;exitDx=0;exitDy=0;exitPerimeter=0;fillColor=#f8cecc;strokeColor=#b85450;fontFamily=Times New Roman;fontSize=15;" parent="w1f9zPb9V4aRd-DBQQLe-1" source="w1f9zPb9V4aRd-DBQQLe-11" edge="1">
          <mxGeometry relative="1" as="geometry">
            <mxPoint x="115" y="130" as="targetPoint" />
          </mxGeometry>
        </mxCell>
        <mxCell id="w1f9zPb9V4aRd-DBQQLe-18" style="edgeStyle=orthogonalEdgeStyle;rounded=0;orthogonalLoop=1;jettySize=auto;html=1;exitX=0.5;exitY=1;exitDx=0;exitDy=0;exitPerimeter=0;entryX=0;entryY=0.5;entryDx=0;entryDy=0;entryPerimeter=0;fillColor=#f8cecc;strokeColor=#b85450;fontFamily=Times New Roman;fontSize=15;" parent="w1f9zPb9V4aRd-DBQQLe-1" source="w1f9zPb9V4aRd-DBQQLe-3" target="w1f9zPb9V4aRd-DBQQLe-4" edge="1">
          <mxGeometry relative="1" as="geometry" />
        </mxCell>
        <mxCell id="w1f9zPb9V4aRd-DBQQLe-26" style="rounded=0;orthogonalLoop=1;jettySize=auto;html=1;fillColor=#f8cecc;strokeColor=#b85450;fontFamily=Times New Roman;fontSize=15;" parent="w1f9zPb9V4aRd-DBQQLe-1" target="w1f9zPb9V4aRd-DBQQLe-8" edge="1">
          <mxGeometry relative="1" as="geometry">
            <mxPoint x="670" y="100" as="sourcePoint" />
          </mxGeometry>
        </mxCell>
        <mxCell id="w1f9zPb9V4aRd-DBQQLe-24" value="Kiểm tra mức độ hoàn thành" style="points=[[0.25,0,0],[0.5,0,0],[0.75,0,0],[1,0.25,0],[1,0.5,0],[1,0.75,0],[0.75,1,0],[0.5,1,0],[0.25,1,0],[0,0.75,0],[0,0.5,0],[0,0.25,0]];shape=mxgraph.bpmn.task;whiteSpace=wrap;rectStyle=rounded;size=10;html=1;container=1;expand=0;collapsible=0;taskMarker=manual;fillColor=#f8cecc;strokeColor=#b85450;fontFamily=Times New Roman;fontSize=15;" parent="w1f9zPb9V4aRd-DBQQLe-1" vertex="1">
          <mxGeometry x="480" y="60" width="190" height="100" as="geometry" />
        </mxCell>
        <mxCell id="w1f9zPb9V4aRd-DBQQLe-27" style="rounded=0;orthogonalLoop=1;jettySize=auto;html=1;exitX=0.56;exitY=0.995;exitDx=0;exitDy=0;exitPerimeter=0;fillColor=#f8cecc;strokeColor=#b85450;fontFamily=Times New Roman;fontSize=15;" parent="w1f9zPb9V4aRd-DBQQLe-1" edge="1">
          <mxGeometry relative="1" as="geometry">
            <mxPoint x="828.2" y="150" as="sourcePoint" />
            <mxPoint x="830" y="271" as="targetPoint" />
            <Array as="points" />
          </mxGeometry>
        </mxCell>
        <mxCell id="w1f9zPb9V4aRd-DBQQLe-2" value="Nhân viên" style="swimlane;html=1;startSize=20;fontStyle=0;collapsible=0;horizontal=0;swimlaneLine=1;swimlaneFillColor=#ffffff;strokeWidth=2;whiteSpace=wrap;fillColor=#f8cecc;strokeColor=#b85450;fontFamily=Times New Roman;fontSize=15;" parent="1" vertex="1">
          <mxGeometry x="170" y="470" width="1030" height="420" as="geometry" />
        </mxCell>
        <mxCell id="w1f9zPb9V4aRd-DBQQLe-6" value="Nhận công việc từ quản lý" style="points=[[0.25,0,0],[0.5,0,0],[0.75,0,0],[1,0.25,0],[1,0.5,0],[1,0.75,0],[0.75,1,0],[0.5,1,0],[0.25,1,0],[0,0.75,0],[0,0.5,0],[0,0.25,0]];shape=mxgraph.bpmn.task;whiteSpace=wrap;rectStyle=rounded;size=10;html=1;container=1;expand=0;collapsible=0;taskMarker=manual;fillColor=#f8cecc;strokeColor=#b85450;fontFamily=Times New Roman;fontSize=15;" parent="w1f9zPb9V4aRd-DBQQLe-2" vertex="1">
          <mxGeometry x="50" y="50" width="180" height="100" as="geometry" />
        </mxCell>
        <mxCell id="w1f9zPb9V4aRd-DBQQLe-21" style="edgeStyle=orthogonalEdgeStyle;rounded=0;orthogonalLoop=1;jettySize=auto;html=1;fillColor=#f8cecc;strokeColor=#b85450;fontFamily=Times New Roman;fontSize=15;" parent="w1f9zPb9V4aRd-DBQQLe-2" source="w1f9zPb9V4aRd-DBQQLe-5" target="w1f9zPb9V4aRd-DBQQLe-7" edge="1">
          <mxGeometry relative="1" as="geometry" />
        </mxCell>
        <mxCell id="w1f9zPb9V4aRd-DBQQLe-5" value="Thực hiện công việc" style="points=[[0.25,0,0],[0.5,0,0],[0.75,0,0],[1,0.25,0],[1,0.5,0],[1,0.75,0],[0.75,1,0],[0.5,1,0],[0.25,1,0],[0,0.75,0],[0,0.5,0],[0,0.25,0]];shape=mxgraph.bpmn.task;whiteSpace=wrap;rectStyle=rounded;size=10;html=1;container=1;expand=0;collapsible=0;taskMarker=manual;fillColor=#f8cecc;strokeColor=#b85450;fontFamily=Times New Roman;fontSize=15;" parent="w1f9zPb9V4aRd-DBQQLe-2" vertex="1">
          <mxGeometry x="244" y="260" width="200" height="100" as="geometry" />
        </mxCell>
        <mxCell id="w1f9zPb9V4aRd-DBQQLe-7" value="Báo cáo tiến độ hoàn thành cho quản lý" style="points=[[0.25,0,0],[0.5,0,0],[0.75,0,0],[1,0.25,0],[1,0.5,0],[1,0.75,0],[0.75,1,0],[0.5,1,0],[0.25,1,0],[0,0.75,0],[0,0.5,0],[0,0.25,0]];shape=mxgraph.bpmn.task;whiteSpace=wrap;rectStyle=rounded;size=10;html=1;container=1;expand=0;collapsible=0;taskMarker=manual;fillColor=#f8cecc;strokeColor=#b85450;fontFamily=Times New Roman;fontSize=15;" parent="w1f9zPb9V4aRd-DBQQLe-2" vertex="1">
          <mxGeometry x="480" y="50" width="190" height="100" as="geometry" />
        </mxCell>
        <mxCell id="w1f9zPb9V4aRd-DBQQLe-10" value="Nhận lương" style="points=[[0.25,0,0],[0.5,0,0],[0.75,0,0],[1,0.25,0],[1,0.5,0],[1,0.75,0],[0.75,1,0],[0.5,1,0],[0.25,1,0],[0,0.75,0],[0,0.5,0],[0,0.25,0]];shape=mxgraph.bpmn.task;whiteSpace=wrap;rectStyle=rounded;size=10;html=1;container=1;expand=0;collapsible=0;taskMarker=manual;fillColor=#f8cecc;strokeColor=#b85450;fontFamily=Times New Roman;fontSize=15;" parent="w1f9zPb9V4aRd-DBQQLe-2" vertex="1">
          <mxGeometry x="740" y="70" width="190" height="95" as="geometry" />
        </mxCell>
        <mxCell id="w1f9zPb9V4aRd-DBQQLe-14" style="edgeStyle=orthogonalEdgeStyle;rounded=0;orthogonalLoop=1;jettySize=auto;html=1;exitX=0.5;exitY=1;exitDx=0;exitDy=0;exitPerimeter=0;entryX=0;entryY=0.5;entryDx=0;entryDy=0;entryPerimeter=0;fillColor=#f8cecc;strokeColor=#b85450;fontFamily=Times New Roman;fontSize=15;" parent="w1f9zPb9V4aRd-DBQQLe-2" source="w1f9zPb9V4aRd-DBQQLe-6" target="w1f9zPb9V4aRd-DBQQLe-5" edge="1">
          <mxGeometry relative="1" as="geometry" />
        </mxCell>
        <mxCell id="w1f9zPb9V4aRd-DBQQLe-29" value="" style="points=[[0.145,0.145,0],[0.5,0,0],[0.855,0.145,0],[1,0.5,0],[0.855,0.855,0],[0.5,1,0],[0.145,0.855,0],[0,0.5,0]];shape=mxgraph.bpmn.event;html=1;verticalLabelPosition=bottom;labelBackgroundColor=#ffffff;verticalAlign=top;align=center;perimeter=ellipsePerimeter;outlineConnect=0;aspect=fixed;outline=end;symbol=terminate2;fillColor=#f8cecc;strokeColor=#b85450;fontFamily=Times New Roman;fontSize=15;" parent="w1f9zPb9V4aRd-DBQQLe-2" vertex="1">
          <mxGeometry x="810" y="250" width="50" height="50" as="geometry" />
        </mxCell>
        <mxCell id="Wzf-vuIRtiaGea22jRDz-5" style="edgeStyle=orthogonalEdgeStyle;rounded=0;orthogonalLoop=1;jettySize=auto;html=1;exitX=0.5;exitY=1;exitDx=0;exitDy=0;exitPerimeter=0;entryX=0.5;entryY=0;entryDx=0;entryDy=0;entryPerimeter=0;fillColor=#f8cecc;strokeColor=#b85450;" edge="1" parent="w1f9zPb9V4aRd-DBQQLe-2" source="w1f9zPb9V4aRd-DBQQLe-10" target="w1f9zPb9V4aRd-DBQQLe-29">
          <mxGeometry relative="1" as="geometry" />
        </mxCell>
        <mxCell id="w1f9zPb9V4aRd-DBQQLe-25" style="rounded=0;orthogonalLoop=1;jettySize=auto;html=1;entryX=0.448;entryY=0.987;entryDx=0;entryDy=0;entryPerimeter=0;fillColor=#f8cecc;strokeColor=#b85450;fontFamily=Times New Roman;fontSize=15;" parent="1" target="w1f9zPb9V4aRd-DBQQLe-24" edge="1">
          <mxGeometry relative="1" as="geometry">
            <mxPoint x="730" y="530" as="sourcePoint" />
          </mxGeometry>
        </mxCell>
        <mxCell id="Wzf-vuIRtiaGea22jRDz-1" style="edgeStyle=orthogonalEdgeStyle;rounded=0;orthogonalLoop=1;jettySize=auto;html=1;exitX=0.25;exitY=1;exitDx=0;exitDy=0;exitPerimeter=0;entryX=0.182;entryY=0.1;entryDx=0;entryDy=0;entryPerimeter=0;fillColor=#f8cecc;strokeColor=#b85450;" edge="1" parent="1" source="w1f9zPb9V4aRd-DBQQLe-3" target="w1f9zPb9V4aRd-DBQQLe-6">
          <mxGeometry relative="1" as="geometry" />
        </mxCell>
        <mxCell id="Wzf-vuIRtiaGea22jRDz-3" style="edgeStyle=orthogonalEdgeStyle;rounded=0;orthogonalLoop=1;jettySize=auto;html=1;exitX=0.5;exitY=1;exitDx=0;exitDy=0;exitPerimeter=0;fillColor=#f8cecc;strokeColor=#b85450;" edge="1" parent="1" source="w1f9zPb9V4aRd-DBQQLe-4" target="w1f9zPb9V4aRd-DBQQLe-5">
          <mxGeometry relative="1" as="geometry" />
        </mxCell>
        <mxCell id="Wzf-vuIRtiaGea22jRDz-4" style="rounded=0;orthogonalLoop=1;jettySize=auto;html=1;entryX=0.5;entryY=0;entryDx=0;entryDy=0;entryPerimeter=0;fillColor=#f8cecc;strokeColor=#b85450;" edge="1" parent="1" target="w1f9zPb9V4aRd-DBQQLe-10">
          <mxGeometry relative="1" as="geometry">
            <mxPoint x="1005" y="420" as="sourcePoint" />
          </mxGeometry>
        </mxCell>
      </root>
    </mxGraphModel>
  </diagram>
</mxfile>
